<?xml version="1.0" encoding="utf-8" ?>
<svg xmlns="http://www.w3.org/2000/svg" xmlns:xlink="http://www.w3.org/1999/xlink" width="1024" height="1024">
	<path fill="#F91713" transform="scale(2 2)" d="M352.79 80.5435C355.718 80.4784 359.373 82.9483 358.119 86.2584C357.193 88.7034 341.317 105.101 337.428 106.779C320.483 106.461 349.933 82.0892 352.79 80.5435Z"/>
	<path fill="#FED31E" transform="scale(2 2)" d="M110.616 173.407C116.153 172.972 129.395 172.932 134.776 173.464C140.798 174.06 141.596 181.421 135.812 182.74L118.147 182.71C114.965 182.707 110.504 183.659 107.763 181.566C103.68 178.448 106.329 173.925 110.616 173.407Z"/>
	<path fill="#F91713" transform="scale(2 2)" d="M393.494 173.407C396.571 173.358 402.186 172.4 404.593 174.542C408.246 177.793 406.377 181.776 401.866 182.62C398.344 183.278 388.531 182.763 384.438 182.74C380.068 182.946 372.334 184.314 372.398 177.777C372.465 170.966 389.48 173.39 393.494 173.407Z"/>
	<path fill="#FED31E" transform="scale(2 2)" d="M157.728 80.5435C161.513 80.1526 180.099 100.215 180.64 101.785C181.613 104.608 178.547 106.873 176.214 107.539C171.911 107.534 158.028 91.8899 154.958 88.2109C151.737 84.3512 153.141 81.5893 157.728 80.5435Z"/>
	<path fill="#2400EE" transform="scale(2 2)" d="M274.357 353.292C278.142 353.083 280.219 357.174 277.968 360.298C276.057 362.95 251.542 366.798 246.607 367.667C244.486 368.021 242.817 366.66 242.176 364.69C239.897 357.679 268.518 354.786 274.357 353.292Z"/>
	<path fill="#FEAB20" transform="scale(2 2)" d="M255.446 43.7412C257.506 43.6793 259.912 44.6052 260.834 46.555C261.517 47.9985 264.364 74.5211 257.461 77.261C255.313 77.4202 252.736 76.6425 251.96 74.3678C251.222 72.2002 251.075 47.8484 251.981 46.0328C252.61 44.7737 254.226 44.1973 255.446 43.7412Z"/>
	<path fill="#2400EE" transform="scale(2 2)" d="M284.905 338.832C289.941 338.154 292.371 345.169 287.155 347.012C280.9 349.221 271.174 350.181 264.533 351.255L232.471 356.661C226.813 357.671 225.091 350.11 230.886 348.285C236.057 346.657 241.775 346.307 247.115 345.365L284.905 338.832Z"/>
	<path fill="#2400EE" transform="scale(2 2)" d="M320.786 379.543C328.915 379.203 326.097 393.508 326.096 399.732L326.081 442.251C326.073 446.696 327.092 450.579 322.797 453.247C317.912 453.479 317.394 450.137 317.268 446.279C317.046 439.503 316.574 385.379 317.657 382.126C318.137 380.686 319.515 380.13 320.786 379.543Z"/>
	<path fill="#2400EE" transform="scale(2 2)" d="M341.778 379.543C350.803 379.355 347.663 391.382 347.654 398.751L347.661 425.781C347.667 433.329 350.612 449.528 344.048 453.247C335.837 453.361 338.594 438.554 338.592 432.376L338.592 404.176C338.594 397.611 335.981 382.763 341.778 379.543Z"/>
	<path fill="#2400EE" transform="scale(2 2)" d="M287.111 325.6C290.63 325.337 293.713 329.193 291.289 332.341C288.865 335.491 228.774 343.93 222.248 345.052C217.12 346.019 212.934 337.974 222.091 336.087C225.872 335.307 229.772 334.871 233.589 334.291L273.984 327.768C278.343 327.021 282.719 326.113 287.111 325.6Z"/>
	<path fill="#2400EE" transform="scale(2 2)" d="M237.924 402.35C250.567 400.592 263.566 412.21 255.499 415.613C251.832 417.16 249.971 412.947 246.047 411.493C237.613 408.369 227.604 412.642 224.569 421.235C218.876 437.354 233.167 450.906 250.026 442.402C255.061 438.016 259.849 442.601 257.039 446.512C250.411 455.738 232.38 454.65 224.273 448.482C207.091 435.409 213.31 405.066 237.924 402.35Z"/>
	<path fill="#2400EE" transform="scale(2 2)" d="M358.387 401.743C364.201 401.548 367.166 410.98 369.396 415.143C373.115 422.086 377.203 429.098 380.111 436.423C383.919 429.642 387.543 421.054 390.975 413.872C392.914 409.814 395.345 400.749 401.579 403.753C406.692 406.218 399.835 416.428 398.34 419.411L388.246 439.364C384.277 446.766 375.153 471.4 362.345 467.116C359.995 466.33 358.007 463.504 359.084 461.028C361.387 455.729 368.158 464.025 375.392 445.81C372.785 439.075 354.611 408.094 355.11 404.261C355.801 402.858 357.044 402.369 358.387 401.743Z"/>
	<path fill="#2400EE" transform="scale(2 2)" d="M281.399 402.35C287.099 401.485 293.592 403.137 297.931 406.977C306.832 414.854 304.755 426.95 304.848 437.564C304.88 441.189 305.375 445.248 304.852 448.806C303.892 455.351 295.899 454.726 296.438 445.81C285.865 458.523 273.044 455.19 264.768 442.402C259.388 421.414 286.052 411.039 296.438 427.103C296.339 421.838 296.222 415.223 291.08 412.172C283.101 407.439 276.73 412.622 269.719 414.304C258.7 407.384 276.159 402.928 281.399 402.35ZM283.792 427.103C267.832 428.438 269.229 447.092 284.905 446.48C300.4 444.437 298.34 426.295 283.792 427.103Z"/>
	<path fill="#2400EE" transform="scale(2 2)" d="M185.39 402.35C198.847 403.936 209.314 410.086 209.648 425.383C209.822 433.339 200.411 430.974 195.216 430.975L169.992 430.987C172.912 444.992 187.892 449.116 198.868 441.412C205.045 436.771 213.275 448.116 193.279 452.564C160.43 459.87 143.702 410.38 185.39 402.35ZM185.39 410.836C177.395 411.799 172.574 416.124 169.992 423.494L186.312 423.494L200.984 423.494C199.028 415 194.291 410.356 185.39 410.836Z"/>
	<path fill="#D400F1" transform="scale(2 2)" d="M224.783 108.629C225.368 108.92 239.75 105.227 242.502 104.97C239.959 105.613 236.813 105.619 235.125 107.929C232.893 110.983 234.695 113.453 238.048 113.214L238.665 113.564C239.416 113.216 239.508 113.138 240.314 113.267L240.273 113.509C238.811 113.745 237.334 113.921 235.934 114.417L235.807 114.834C231.819 116.156 227.793 117.21 223.914 118.858C169.584 141.937 155.363 205.538 188.428 252.258C186.213 251.365 184.715 249.182 182.038 249.468C181.532 249.522 178.372 250.015 178.307 250.089C177.87 252.461 181.271 255.024 179.292 254.462L179.081 254.748C173.37 248.868 167.871 234.052 165.483 226.358C151.705 181.959 173.52 133.435 214.766 112.933C217.964 111.343 221.369 109.681 224.783 108.629Z"/>
	<path fill="#2400EE" transform="scale(2 2)" d="M112.492 385.331C120.057 385.335 133.607 384.318 140.348 386.718C159.896 393.679 159.353 418.724 141.479 427.103C145.104 432.428 152.454 441.792 155.201 446.977C157.561 451.43 152.756 458.614 145.627 448.122C142.093 442.233 136.633 433.819 132.268 428.74C127.304 428.64 122.316 428.735 117.35 428.74C117.35 432.616 117.878 448.892 116.764 451.247C115.324 454.294 109.903 453.881 109.226 450.572C108.594 447.474 108.845 443.794 108.842 440.623L108.833 402.794C108.835 397.698 106.758 386.61 112.492 385.331ZM117.35 393.264L117.35 420.706L126.813 420.737C132.899 420.745 137.312 420.598 142.255 416.676C147.594 411.331 148.641 403.103 142.868 397.536C138.274 393.105 132.642 393.232 126.693 393.238L117.35 393.264Z"/>
	<defs>
		<linearGradient id="gradient_0" gradientUnits="userSpaceOnUse" x1="192.3439" y1="174.84993" x2="331.70929" y2="262.79059">
			<stop offset="0" stop-color="#CE09FE"/>
			<stop offset="1" stop-color="#7F13FE"/>
		</linearGradient>
	</defs>
	<path fill="url(#gradient_0)" transform="scale(2 2)" d="M224.783 108.629C272.872 89.7416 326.679 118.711 345.058 165.69C359.442 202.455 347.561 247.941 316.843 272.725C312.767 276.014 308.164 278.879 304.245 282.302L304.267 294.9C304.271 303.654 304.215 310.561 297.578 317.184C288.095 326.647 278.099 324.519 265.803 324.496L232.893 324.504C214.286 324.334 208.109 311.425 208.085 294.736L208.099 282.302C197.23 275.502 186.09 265.699 179.081 254.748L179.292 254.462C181.271 255.024 177.87 252.461 178.307 250.089C178.372 250.015 181.532 249.522 182.038 249.468C184.715 249.182 186.213 251.365 188.428 252.258C194.629 260.131 201.658 266.692 209.808 272.468C217.075 277.619 217.322 276.841 217.199 285.508C216.896 306.902 215.498 315.66 239.085 315.531L271.53 315.532C296.422 315.643 295.205 310.358 295.04 285.323C294.964 273.801 297.508 275.816 305.913 269.73C332.754 250.292 346.6 215.489 340.539 182.847C333.153 143.076 295.626 111.001 254.752 112.309C248.318 112.515 242.112 113.638 235.807 114.834L235.934 114.417C237.334 113.921 238.811 113.745 240.273 113.509L240.314 113.267C239.508 113.138 239.416 113.216 238.665 113.564L238.048 113.214C234.695 113.453 232.893 110.983 235.125 107.929C236.813 105.619 239.959 105.613 242.502 104.97C239.75 105.227 225.368 108.92 224.783 108.629Z"/>
	<defs>
		<linearGradient id="gradient_1" gradientUnits="userSpaceOnUse" x1="235.9119" y1="208.97893" x2="284.55081" y2="271.09076">
			<stop offset="0" stop-color="#CE0CFE"/>
			<stop offset="1" stop-color="#9A1AFF"/>
		</linearGradient>
	</defs>
	<path fill="url(#gradient_1)" transform="scale(2 2)" d="M235.807 211.083C251.706 209.894 257.609 230.557 262.744 241.839C264.637 234.169 270.277 221.834 278.361 219.578C288.851 216.651 299.568 236.864 289.813 238.438C284.843 239.24 284.541 231.085 280.254 228.025C271.603 236.027 267.325 256.481 265.879 268.19C264.857 272.39 267.208 295.558 257.438 289.167C251.991 285.604 258.425 264.423 257.144 257.804C255.066 247.067 248.658 226.36 239.262 220.342C230.559 214.769 231.961 237.273 230.088 240.605C227.626 244.987 222.806 241.356 222.275 237.663C220.885 227.988 224.152 212.543 235.807 211.083Z"/>
	<path fill="#D400F1" transform="scale(2 2)" d="M251.503 129.492C255.256 129.449 259.043 129.357 262.784 129.707C327.863 135.805 348.709 223.502 291.946 258.752C280.977 265.564 278.67 257.572 281.66 254.293C283.658 252.103 286.938 250.802 289.394 249.15C338.209 216.322 315.451 135.105 251.503 138.498C214.792 143.659 189.04 176.151 197.669 213.252C203.056 236.416 216.56 245.505 234.501 256.874C237.99 259.085 238.008 264.586 233.325 265.307C229.311 265.925 218.649 258.333 215.438 255.844C164.036 216 185.972 137.506 251.503 129.492Z"/>
</svg>
